<?xml version="1.0" encoding="UTF-8" standalone="no"?>
<svg
   xmlns:dc="http://purl.org/dc/elements/1.1/"
   xmlns:cc="http://creativecommons.org/ns#"
   xmlns:rdf="http://www.w3.org/1999/02/22-rdf-syntax-ns#"
   xmlns:svg="http://www.w3.org/2000/svg"
   xmlns="http://www.w3.org/2000/svg"
   xmlns:sodipodi="http://sodipodi.sourceforge.net/DTD/sodipodi-0.dtd"
   xmlns:inkscape="http://www.inkscape.org/namespaces/inkscape"
   sodipodi:docname="github.svg"
   inkscape:version="1.0 (4035a4fb49, 2020-05-01)"
   id="svg8"
   version="1.1"
   viewBox="0 0 12.670728 12.384297"
   height="46.696732"
   width="47.889366">
  <defs
     id="defs2" />
  <sodipodi:namedview
     units="px"
     fit-margin-bottom="0"
     fit-margin-right="0"
     fit-margin-left="0"
     fit-margin-top="0"
     viewbox-height="297.7"
     inkscape:window-maximized="0"
     inkscape:window-y="0"
     inkscape:window-x="8"
     inkscape:window-height="1040"
     inkscape:window-width="1896"
     showborder="true"
     showgrid="false"
     inkscape:document-rotation="0"
     inkscape:current-layer="layer1"
     inkscape:document-units="mm"
     inkscape:cy="96.305043"
     inkscape:cx="-77.966678"
     inkscape:zoom="0.49497475"
     inkscape:pageshadow="2"
     inkscape:pageopacity="0.0"
     borderopacity="1.0"
     bordercolor="#666666"
     pagecolor="#ffffff"
     id="base" />
  <metadata
     id="metadata5">
    <rdf:RDF>
      <cc:Work
         rdf:about="">
        <dc:format>image/svg+xml</dc:format>
        <dc:type
           rdf:resource="http://purl.org/dc/dcmitype/StillImage" />
        <dc:title></dc:title>
      </cc:Work>
    </rdf:RDF>
  </metadata>
  <g
     transform="translate(196.83694,96.1249)"
     id="layer1"
     inkscape:groupmode="layer"
     inkscape:label="Layer 1">
    <path
       style="fill:#333333;stroke-width:0.634875"
       d="m -190.73566,-96.1249 a 6.3490281,6.3490281 0 0 0 -2.00778,12.372142 c 0.31743,0.05557 0.43647,-0.134901 0.43647,-0.301566 0,-0.150786 -0.007,-0.650748 -0.007,-1.18245 -1.59513,0.293625 -2.0078,-0.388842 -2.13479,-0.74596 a 2.3084097,2.3084097 0 0 0 -0.65073,-0.896782 c -0.22219,-0.11904 -0.53965,-0.412669 -0.007,-0.420592 a 1.2704951,1.2704951 0 0 1 0.97613,0.650729 1.356997,1.356997 0 0 0 1.84905,0.523772 1.335627,1.335627 0 0 1 0.40475,-0.849122 c -1.4126,-0.158729 -2.8887,-0.706324 -2.8887,-3.134701 a 2.4708553,2.4708553 0 0 1 0.65075,-1.706227 2.2815734,2.2815734 0 0 1 0.0636,-1.682423 c 0,0 0.53169,-0.166671 1.7459,0.650749 a 5.9852756,5.9852756 0 0 1 3.17439,0 c 1.21419,-0.825341 1.7459,-0.650749 1.7459,-0.650749 a 2.281256,2.281256 0 0 1 0.0636,1.682423 2.4563358,2.4563358 0 0 1 0.65075,1.706227 c 0,2.43632 -1.48404,2.975984 -2.89662,3.134701 a 1.5034756,1.5034756 0 0 1 0.42853,1.174523 c 0,0.849158 -0.007,1.531626 -0.007,1.745909 0,0.166671 0.11902,0.365053 0.43647,0.301566 a 6.3521263,6.3521263 0 0 0 -2.02364,-12.372169 z"
       id="path848" />
  </g>
</svg>
