<?xml version="1.0" encoding="UTF-8" standalone="no"?>
<svg
   xmlns:dc="http://purl.org/dc/elements/1.1/"
   xmlns:cc="http://creativecommons.org/ns#"
   xmlns:rdf="http://www.w3.org/1999/02/22-rdf-syntax-ns#"
   xmlns:svg="http://www.w3.org/2000/svg"
   xmlns="http://www.w3.org/2000/svg"
   xmlns:sodipodi="http://sodipodi.sourceforge.net/DTD/sodipodi-0.dtd"
   xmlns:inkscape="http://www.inkscape.org/namespaces/inkscape"
   width="48.000004"
   height="48.30357"
   viewBox="0 0 12.700001 12.78032"
   version="1.1"
   id="svg8"
   inkscape:version="1.0 (4035a4fb49, 2020-05-01)"
   sodipodi:docname="linkedin.svg">
  <defs
     id="defs2" />
  <sodipodi:namedview
     fit-margin-bottom="0"
     fit-margin-right="0"
     fit-margin-left="0"
     fit-margin-top="0"
     units="px"
     id="base"
     pagecolor="#ffffff"
     bordercolor="#666666"
     borderopacity="1.0"
     inkscape:pageopacity="0.0"
     inkscape:pageshadow="2"
     inkscape:zoom="3.959798"
     inkscape:cx="95.740299"
     inkscape:cy="63.73301"
     inkscape:document-units="mm"
     inkscape:current-layer="layer1"
     inkscape:document-rotation="0"
     showgrid="false"
     showborder="true"
     inkscape:window-width="1896"
     inkscape:window-height="1040"
     inkscape:window-x="8"
     inkscape:window-y="0"
     inkscape:window-maximized="0" />
  <metadata
     id="metadata5">
    <rdf:RDF>
      <cc:Work
         rdf:about="">
        <dc:format>image/svg+xml</dc:format>
        <dc:type
           rdf:resource="http://purl.org/dc/dcmitype/StillImage" />
        <dc:title></dc:title>
      </cc:Work>
    </rdf:RDF>
  </metadata>
  <g
     transform="translate(-93.602019,-111.01728)"
     inkscape:label="Layer 1"
     inkscape:groupmode="layer"
     id="layer1">
    <path
       id="path839"
       d="M 105.36296,111.01728 H 94.541079 c -0.51845,0 -0.93906,0.41038 -0.93906,0.91715 v 10.94747 c 0,0.50678 0.42061,0.9157 0.93906,0.9157 h 10.821881 c 0.51845,0 0.93906,-0.40892 0.93906,-0.9157 v -10.94893 c -0.002,-0.50531 -0.42207,-0.91569 -0.93906,-0.91569 z m -7.911221,10.69627 h -1.91756 v -5.76874 h 1.91756 z m -0.95805,-6.55592 h -0.0131 c -0.64405,0 -1.05882,-0.44251 -1.05882,-0.99748 0,-0.56665 0.42937,-0.99748 1.08365,-0.99748 0.6572,0 1.06028,0.43083 1.07196,0.99748 0,0.55497 -0.41476,0.99748 -1.08364,0.99748 z m 7.874701,6.55592 h -1.91902 v -3.08591 c 0,-0.7755 -0.27602,-1.30418 -0.96973,-1.30418 -0.5316,0 -0.84705,0.35635 -0.9858,0.70102 -0.0497,0.12413 -0.0613,0.29647 -0.0613,0.46734 v 3.22465 h -1.919021 c 0,0 0.0248,-5.22838 0,-5.7702 h 1.919021 v 0.81638 c 0.25411,-0.39285 0.71123,-0.9522 1.7277,-0.9522 1.26182,0 2.20818,0.82515 2.20818,2.59812 z"
       style="fill:#000000;fill-opacity:1;stroke-width:0.0146274;stroke-miterlimit:4;stroke-dasharray:none" />
  </g>
</svg>
